<svg width="36" height="36" viewBox="0 0 36 36" fill="none" xmlns="http://www.w3.org/2000/svg">
<rect width="36" height="36" rx="18" fill="#265CEE"/>
<g clip-path="url(#clip0_1112_55762)">
<g clip-path="url(#clip1_1112_55762)">
<path d="M18 6L8 12V24L18 30L28 24V12L18 6ZM12.526 14L18 7.20635L23.1988 14H12.526ZM23.2905 14.6349L18 24.4762L12.4343 14.6349H23.2905ZM17.419 24.6667L8.94801 23.2381L11.945 15.0159L17.419 24.6667ZM23.7798 15.0476L27.052 23.2698L18.581 24.6984L23.7798 15.0476ZM23.8716 13.9048L18.7951 7.20635L27.052 12.1587L23.8716 13.9048ZM11.8226 13.9048L8.94801 12.1587L17.1437 7.2381L11.8226 13.9048ZM11.5168 14.4444L8.61162 22.381V12.6984L11.5168 14.4444ZM17.6942 25.3651V29.0794L9.10092 23.9365L17.6942 25.3651ZM18.3058 25.3651L26.8991 23.9365L18.3058 29.0794V25.3651ZM24.208 14.4444L27.419 12.6667V22.4762L24.208 14.4444Z" fill="white"/>
</g>
</g>
<defs>
<clipPath id="clip0_1112_55762">
<rect width="20" height="24" fill="white" transform="translate(8 6)"/>
</clipPath>
<clipPath id="clip1_1112_55762">
<rect width="20" height="24" fill="white" transform="translate(8 6)"/>
</clipPath>
</defs>
</svg>
