<svg width="38" height="38" viewBox="0 0 38 38" fill="none" xmlns="http://www.w3.org/2000/svg">
<circle cx="19" cy="19" r="19" fill="#D9D8F8"/>
<path d="M17.1034 30.0053L20.0468 26.7129C20.0964 26.6635 20.0633 26.5812 19.9806 26.5812H16.7396C16.7231 26.5812 16.69 26.5647 16.6735 26.5483L13.9285 23.4863C13.912 23.4534 13.8955 23.4205 13.912 23.3875L18.509 15.5351C18.5255 15.5022 18.5255 15.4693 18.509 15.4528L16.6073 12.1933C16.5743 12.1439 16.4916 12.1439 16.4585 12.1933L9.6623 23.8156C9.64577 23.8485 9.64577 23.8814 9.6623 23.9143L15.1191 30.0218C15.1356 30.0382 15.1522 30.0547 15.1853 30.0547H17.0373C17.0538 30.0382 17.0869 30.0218 17.1034 30.0053Z" fill="#0C152E"/>
<path d="M19.12 7.649L17.2019 10.9085C17.1853 10.9414 17.1853 10.9743 17.2019 10.9908L19.1861 14.382L24.4445 23.3703C24.4611 23.4033 24.4611 23.4362 24.428 23.4691L21.65 26.564L18.6901 29.8893C18.6405 29.9387 18.6735 30.021 18.7562 30.021H23.1878C23.2043 30.021 23.2374 30.0046 23.254 29.9881L28.7108 23.8807C28.7273 23.8477 28.7438 23.8148 28.7273 23.7819L19.2523 7.649C19.2358 7.58315 19.1531 7.58315 19.12 7.649Z" fill="#0C152E"/>
</svg>
